<svg version="1.2" xmlns="http://www.w3.org/2000/svg" viewBox="0 0 533 491" width="533" height="491">
	<style>
		.s0 { fill: #000001 } 
	</style>
	<g id="Layer 1">
		<path id="Path 0" fill-rule="evenodd" class="s0" d="m257.1 17.15c-5.17 9.54-16.46 30.4-25.09 46.35-8.64 15.95-22.13 40.92-29.99 55.5-7.86 14.57-16.33 30.32-18.82 35-2.49 4.68-7.9 14.57-12.02 22-4.13 7.43-10.49 19.13-14.14 26-3.65 6.88-14.21 26.45-23.47 43.5-9.25 17.05-19.19 35.27-22.08 40.5-2.89 5.23-9.07 16.48-13.73 25-4.66 8.52-13.33 24.5-19.26 35.5-5.94 11-12.68 23.38-15 27.5-2.31 4.13-6.13 11.1-8.5 15.5-2.37 4.4-6.2 11.38-8.53 15.5-2.32 4.13-10.55 19.2-18.27 33.5-7.73 14.3-17.19 31.85-21.03 39l-6.98 13c101.76 0.4 131.87 0.29 132.56 0.01 0.69-0.28 3.18-4.22 5.55-8.76 2.36-4.54 8.15-15.23 12.86-23.75 4.71-8.52 15.78-28.77 24.59-45 8.82-16.23 17.38-31.98 19.02-35 1.65-3.02 10.85-19.9 20.45-37.5 9.6-17.6 19.61-36.05 22.25-41 2.64-4.95 7.44-13.84 10.66-19.75 3.23-5.91 8.65-15.81 12.05-22 3.4-6.19 8.95-16.43 12.34-22.75 3.38-6.32 12.13-22.53 19.43-36 7.3-13.47 14.75-27.2 16.55-30.5 1.79-3.3 7.2-13.43 12.01-22.5 4.81-9.07 9.66-18.07 10.78-20l2.03-3.5c-34.51-63.55-48.83-89.88-54.08-99.5-5.25-9.62-10.26-18.78-11.14-20.35l-1.61-2.84zm103.42 190.59c-4.88 9.22-12.99 24.4-18.03 33.75-5.04 9.35-11.32 21.05-13.96 26-2.63 4.95-7.61 14.18-11.06 20.5-3.44 6.33-17.38 31.98-30.98 57-13.6 25.03-27.3 50.23-30.45 56-3.14 5.78-6.35 11.5-7.13 12.71-0.77 1.21-1.07 2.44-0.66 2.75 0.41 0.3 3.79-1.2 7.5-3.32 3.71-2.13 12.15-6.8 18.75-10.39 6.6-3.58 14.93-8.09 18.5-10.02 3.58-1.92 14.15-7.62 23.5-12.66 9.35-5.03 17.45-8.98 18-8.76 0.55 0.21 2.98 4.17 5.39 8.79 2.42 4.62 7.88 14.7 12.14 22.4 4.26 7.7 14.63 26.6 23.05 42 8.41 15.4 17.43 32.05 20.05 37l4.75 9c103.17 0.39 133.12 0.28 133.12 0 0-0.27-2.63-5.33-5.86-11.25-3.22-5.91-12.5-22.9-20.62-37.75-8.12-14.85-19.81-36.22-25.98-47.5-6.16-11.27-13.36-24.55-15.99-29.5-2.64-4.95-10.41-19.35-17.28-32-6.88-12.65-14.88-27.27-17.78-32.5-2.9-5.22-12.68-23.22-21.74-40-9.05-16.77-20.95-39.16-26.44-49.75-5.49-10.58-10.42-19.25-10.95-19.25-0.54 0-4.96 7.54-9.84 16.75z"/>
	</g>
</svg>