<svg xmlns="http://www.w3.org/2000/svg" viewBox="0 0 24 24" width="24" height="24" role="img" aria-label="GitHub icon">
  <rect width="100%" height="100%" fill="none"/>
  <path fill="#ff6a00" d="M12 .5C5.73.5.5 5.73.5 12c0 5.08 3.29 9.387 7.86 10.91.57.1.78-.248.78-.55 0-.27-.01-1.17-.015-2.13-3.2.696-3.88-1.542-3.88-1.542-.52-1.326-1.27-1.68-1.27-1.68-1.04-.712.08-.697.08-.697 1.15.08 1.75 1.182 1.75 1.182 1.02 1.75 2.67 1.245 3.32.95.1-.74.4-1.245.73-1.534-2.56-.29-5.25-1.28-5.25-5.69 0-1.256.45-2.284 1.18-3.09-.12-.29-.51-1.45.11-3.02 0 0 .96-.308 3.15 1.18.92-.256 1.9-.384 2.88-.39.98.006 1.96.133 2.88.39 2.19-1.49 3.15-1.18 3.15-1.18.62 1.57.23 2.73.11 3.02.73.806 1.18 1.834 1.18 3.09 0 4.42-2.7 5.4-5.27 5.68.41.36.77 1.07.77 2.16 0 1.56-.015 2.82-.015 3.2 0 .3.21.66.78.55C20.71 21.387 24 17.08 24 12c0-6.27-5.23-11.5-12-11.5z"/>
</svg>