<svg xmlns="http://www.w3.org/2000/svg" viewBox="0 0 24 24" width="24" height="24" role="img" aria-label="Twitter icon">
  <path fill="#ff6a00" d="M22.46 6c-.77.35-1.6.58-2.47.69.89-.53 1.57-1.36 1.88-2.36-.83.5-1.75.86-2.73 1.06A4.15 4.15 0 0 0 12 8.29c0 .33.04.66.11.97-3.45-.17-6.51-1.83-8.56-4.34-.36.61-.57 1.32-.57 2.08 0 1.44.73 2.71 1.85 3.46-.68-.02-1.32-.21-1.88-.52v.05c0 2.01 1.42 3.69 3.31 4.07-.35.1-.72.15-1.1.15-.27 0-.53-.03-.78-.08.53 1.65 2.06 2.85 3.87 2.88A8.33 8.33 0 0 1 2 19.54a11.76 11.76 0 0 0 6.29 1.84c7.55 0 11.68-6.26 11.68-11.68v-.53c.8-.59 1.5-1.32 2.05-2.16-.73.33-1.52.55-2.34.65z"/>
</svg>