<svg xmlns="http://www.w3.org/2000/svg" viewBox="0 0 24 24" width="24" height="24" role="img" aria-label="WhatsApp icon">
  <rect width="100%" height="100%" fill="none"/>
  <path fill="#ff6a00" d="M20.52 3.48A11.88 11.88 0 0 0 12 0C5.37 0 .05 5.32.05 12c0 2.11.55 4.09 1.6 5.86L0 24l6.38-1.64A11.9 11.9 0 0 0 12 24c6.63 0 11.95-5.32 11.95-12 0-3.2-1.24-6.18-3.43-8.52zM12 21.5c-1.77 0-3.5-.48-4.98-1.38L5 19l1.03-1.9C5.17 15.87 4.7 13.97 4.7 12c0-3.01 2.46-5.5 5.5-5.5 3.05 0 5.5 2.49 5.5 5.5 0 3.03-2.45 5.5-5.5 5.5z"/>
</svg>