<svg xmlns="http://www.w3.org/2000/svg" viewBox="0 0 24 24" width="24" height="24" role="img" aria-label="WhatsApp icon">
  <defs>
    <style>.brand{fill:#ff6a00}</style>
    <!-- Mask: white = visible, black = transparent -->
    <mask id="m">
      <rect x="0" y="0" width="24" height="24" fill="white" />
      <!-- handset shape in black to punch a hole -->
      <path d="M17.2 14.1c-.3-.15-1.77-.86-2.05-.96-.28-.1-.48-.15-.68.15s-.78.96-.96 1.16c-.18.2-.36.23-.66.08-.3-.15-1.12-.41-2.13-1.32-.79-.7-1.32-1.56-1.47-1.86-.15-.3-.02-.46.12-.61.12-.12.26-.3.39-.45.13-.15.17-.25.26-.42.09-.17.05-.32-.02-.46-.07-.14-.68-1.63-.93-2.24-.24-.58-.49-.5-.68-.51-.17-.01-.38-.01-.58-.01-.2 0-.52.07-.8.36-.28.29-1.08 1.05-1.08 2.56 0 1.5 1.11 2.95 1.27 3.16.16.21 2.19 3.35 5.3 4.69 3.11 1.34 3.11.9 3.67.84.56-.06 1.77-.72 2.02-1.41.25-.69.25-1.29.18-1.41-.07-.12-.27-.19-.57-.34z" fill="black" />
    </mask>
  </defs>
  <!-- Orange speech bubble with handset cut out -->
  <path class="brand" mask="url(#m)" d="M12 0C5.373 0 0 4.925 0 11c0 2.66.86 5.115 2.33 7.02L1 24l6.36-2.01A10.964 10.964 0 0 0 12 22C18.627 22 24 17.075 24 11S18.627 0 12 0z"/>
</svg>